<?xml version="1.0" standalone="no"?>
<svg width="912" height="204" viewBox="-8 -86 912 204 " xmlns="http://www.w3.org/2000/svg" version="1.1">
<defs><style type="text/css">.terminal_rect{fill:rgb(206,255,206);stroke:black;stroke-width:2;}.terminal_text{fill:black;font-family:Verdana,Sans-serif;text-anchor:middle;font-size:14px;}.symbol_rect{fill:rgb(206,255,206);stroke:black;stroke-width:2;}.symbol_text{fill:black;font-family:Verdana,Sans-serif;font-weight:bold;font-style:italic;text-anchor:middle;font-size:14px;}.path{fill:none;stroke:black;stroke-width:2;}.rule_text{fill:black;font-family:Verdana,Sans-serif;font-weight:bold;font-size:14px;}.rule_path_edge{fill:none;stroke:black;stroke-width:3;}</style></defs>
<text class="rule_text" x="0" y="-64" >annotation:</text>
<rect class="terminal_rect" x="30" y="-14" width="26" height="28" rx="28" />
<text class="terminal_text" x="43" y="4" >@</text>
<rect class="symbol_rect" x="128" y="-14" width="106" height="28" rx="1" />
<text class="symbol_text" x="181" y="4" >namespace</text>
<rect class="symbol_rect" x="258" y="-14" width="106" height="28" rx="1" />
<text class="symbol_text" x="311" y="4" >delimiter</text>
<path class="path" d="M234 0 L258 0" />
<path class="path" d="M128 0 L104 0 M116 0 Q104 0 104 -12 L104 -36 Q104 -48 116 -48 L376 -48 Q388 -48 388 -36 L388 -12 Q388 0 376 0 L364 0 L388 0" />
<path class="path" d="M128 0 L80 0 Q92 0 92 12 L92 24 Q92 36 104 36 L388 36 Q400 36 400 24 L400 12 Q400 0 412 0 L364 0 M80 0 L104 0 M388 0 L412 0" />
<rect class="symbol_rect" x="436" y="-14" width="116" height="28" rx="1" />
<text class="symbol_text" x="494" y="4" >identifier</text>
<rect class="symbol_rect" x="648" y="-14" width="56" height="28" rx="1" />
<text class="symbol_text" x="676" y="4" >type</text>
<path class="path" d="M648 44 L664 44" />
<path class="path" d="M612 0 L648 0 M612 0 Q624 0 624 12 M740 0 L704 0 M740 0 Q728 0 728 12" />
<path class="path" d="M636 44 L648 44 M636 44 Q624 44 624 32 L624 12 M716 44 L664 44 M716 44 Q728 44 728 32 L728 12" />
<rect class="symbol_rect" x="764" y="-14" width="66" height="28" rx="1" />
<text class="symbol_text" x="797" y="4" >value</text>
<path class="path" d="M740 0 L764 0" />
<path class="path" d="M612 88 L628 88" />
<path class="path" d="M576 0 L612 0 M576 0 Q588 0 588 12 M866 0 L830 0 M866 0 Q854 0 854 12" />
<path class="path" d="M600 88 L612 88 M600 88 Q588 88 588 76 L588 12 M842 88 L628 88 M842 88 Q854 88 854 76 L854 12" />
<path class="path" d="M56 0 L80 0" />
<path class="path" d="M412 0 L436 0" />
<path class="path" d="M552 0 L576 0" />
<path class="path" d="M0 0 L30 0 M896 0 L866 0" />
<path class="rule_path_edge" d="M0 -6 L0 6 M896 -6 L896 6" />
</svg>
