<?xml version="1.0" standalone="no"?>
<svg width="758" height="176" viewBox="-8 -58 758 176 " xmlns="http://www.w3.org/2000/svg" version="1.1">
<defs><style type="text/css">.terminal_rect{fill:rgb(206,255,206);stroke:black;stroke-width:2;}.terminal_text{fill:black;font-family:Verdana,Sans-serif;text-anchor:middle;font-size:14px;}.symbol_rect{fill:rgb(206,255,206);stroke:black;stroke-width:2;}.symbol_text{fill:black;font-family:Verdana,Sans-serif;font-weight:bold;font-style:italic;text-anchor:middle;font-size:14px;}.path{fill:none;stroke:black;stroke-width:2;}.rule_text{fill:black;font-family:Verdana,Sans-serif;font-weight:bold;font-size:14px;}.rule_path_edge{fill:none;stroke:black;stroke-width:3;}</style></defs>
<text class="rule_text" x="0" y="-36" >annotation:</text>
<rect class="terminal_rect" x="30" y="-14" width="26" height="28" rx="28" />
<text class="terminal_text" x="43" y="4" >@</text>
<rect class="symbol_rect" x="116" y="-14" width="106" height="28" rx="1" />
<text class="symbol_text" x="169" y="4" >namespace</text>
<path class="path" d="M116 44 L132 44" />
<path class="path" d="M80 0 L116 0 M80 0 Q92 0 92 12 M258 0 L222 0 M258 0 Q246 0 246 12" />
<path class="path" d="M104 44 L116 44 M104 44 Q92 44 92 32 L92 12 M234 44 L132 44 M234 44 Q246 44 246 32 L246 12" />
<rect class="symbol_rect" x="282" y="-14" width="116" height="28" rx="1" />
<text class="symbol_text" x="340" y="4" >identifier</text>
<rect class="symbol_rect" x="494" y="-14" width="56" height="28" rx="1" />
<text class="symbol_text" x="522" y="4" >type</text>
<path class="path" d="M494 44 L510 44" />
<path class="path" d="M458 0 L494 0 M458 0 Q470 0 470 12 M586 0 L550 0 M586 0 Q574 0 574 12" />
<path class="path" d="M482 44 L494 44 M482 44 Q470 44 470 32 L470 12 M562 44 L510 44 M562 44 Q574 44 574 32 L574 12" />
<rect class="symbol_rect" x="610" y="-14" width="66" height="28" rx="1" />
<text class="symbol_text" x="643" y="4" >value</text>
<path class="path" d="M586 0 L610 0" />
<path class="path" d="M458 88 L474 88" />
<path class="path" d="M422 0 L458 0 M422 0 Q434 0 434 12 M712 0 L676 0 M712 0 Q700 0 700 12" />
<path class="path" d="M446 88 L458 88 M446 88 Q434 88 434 76 L434 12 M688 88 L474 88 M688 88 Q700 88 700 76 L700 12" />
<path class="path" d="M56 0 L80 0" />
<path class="path" d="M258 0 L282 0" />
<path class="path" d="M398 0 L422 0" />
<path class="path" d="M0 0 L30 0 M742 0 L712 0" />
<path class="rule_path_edge" d="M0 -6 L0 6 M742 -6 L742 6" />
</svg>
