<?xml version="1.0" standalone="no"?>
<svg width="572" height="160" viewBox="-8 -86 572 160 " xmlns="http://www.w3.org/2000/svg" version="1.1">
<defs><style type="text/css">.terminal_rect{fill:rgb(206,255,206);stroke:black;stroke-width:2;}.terminal_text{fill:black;font-family:Verdana,Sans-serif;text-anchor:middle;font-size:14px;}.symbol_rect{fill:rgb(206,255,206);stroke:black;stroke-width:2;}.symbol_text{fill:black;font-family:Verdana,Sans-serif;font-weight:bold;font-style:italic;text-anchor:middle;font-size:14px;}.path{fill:none;stroke:black;stroke-width:2;}.rule_text{fill:black;font-family:Verdana,Sans-serif;font-weight:bold;font-size:14px;}.rule_path_edge{fill:none;stroke:black;stroke-width:3;}</style></defs>
<text class="rule_text" x="0" y="-64" >namespace:</text>
<rect class="symbol_rect" x="66" y="-14" width="106" height="28" rx="1" />
<text class="symbol_text" x="119" y="4" >delimiter</text>
<path class="path" d="M66 44 L82 44" />
<path class="path" d="M30 0 L66 0 M30 0 Q42 0 42 12 M208 0 L172 0 M208 0 Q196 0 196 12" />
<path class="path" d="M54 44 L66 44 M54 44 Q42 44 42 32 L42 12 M184 44 L82 44 M184 44 Q196 44 196 32 L196 12" />
<rect class="symbol_rect" x="256" y="-14" width="116" height="28" rx="1" />
<text class="symbol_text" x="314" y="4" >identifier</text>
<rect class="symbol_rect" x="396" y="-14" width="106" height="28" rx="1" />
<text class="symbol_text" x="449" y="4" >delimiter</text>
<path class="path" d="M372 0 L396 0" />
<path class="path" d="M256 0 L232 0 M244 0 Q232 0 232 -12 L232 -36 Q232 -48 244 -48 L514 -48 Q526 -48 526 -36 L526 -12 Q526 0 514 0 L502 0 L526 0" />
<path class="path" d="M208 0 L232 0" />
<path class="path" d="M0 0 L30 0 M556 0 L526 0" />
<path class="rule_path_edge" d="M0 -6 L0 6 M556 -6 L556 6" />
</svg>
