<?xml version="1.0" standalone="no"?>
<svg width="234" height="264" viewBox="-8 -58 234 264 " xmlns="http://www.w3.org/2000/svg" version="1.1">
<defs><style type="text/css">.terminal_rect{fill:rgb(206,255,206);stroke:black;stroke-width:2;}.terminal_text{fill:black;font-family:Verdana,Sans-serif;text-anchor:middle;font-size:14px;}.symbol_rect{fill:rgb(206,255,206);stroke:black;stroke-width:2;}.symbol_text{fill:black;font-family:Verdana,Sans-serif;font-weight:bold;font-style:italic;text-anchor:middle;font-size:14px;}.path{fill:none;stroke:black;stroke-width:2;}.rule_text{fill:black;font-family:Verdana,Sans-serif;font-weight:bold;font-size:14px;}.rule_path_edge{fill:none;stroke:black;stroke-width:3;}</style></defs>
<text class="rule_text" x="0" y="-36" >type:</text>
<rect class="terminal_rect" x="66" y="-14" width="56" height="28" rx="28" />
<text class="terminal_text" x="94" y="4" >json</text>
<rect class="terminal_rect" x="66" y="30" width="76" height="28" rx="28" />
<text class="terminal_text" x="104" y="48" >string</text>
<rect class="terminal_rect" x="66" y="74" width="86" height="28" rx="28" />
<text class="terminal_text" x="109" y="92" >integer</text>
<rect class="terminal_rect" x="66" y="118" width="66" height="28" rx="28" />
<text class="terminal_text" x="99" y="136" >float</text>
<rect class="terminal_rect" x="66" y="162" width="36" height="28" rx="28" />
<text class="terminal_text" x="84" y="180" >-&gt;</text>
<path class="path" d="M30 0 L66 0 M30 0 Q42 0 42 12 M188 0 L122 0 M188 0 Q176 0 176 12" />
<path class="path" d="M54 44 L66 44 M54 44 Q42 44 42 32 L42 12 M164 44 L142 44 M164 44 Q176 44 176 32 L176 12" />
<path class="path" d="M54 88 L66 88 M54 88 Q42 88 42 76 L42 32 M164 88 L152 88 M164 88 Q176 88 176 76 L176 32" />
<path class="path" d="M54 132 L66 132 M54 132 Q42 132 42 120 L42 76 M164 132 L132 132 M164 132 Q176 132 176 120 L176 76" />
<path class="path" d="M54 176 L66 176 M54 176 Q42 176 42 164 L42 120 M164 176 L102 176 M164 176 Q176 176 176 164 L176 120" />
<path class="path" d="M0 0 L30 0 M218 0 L188 0" />
<path class="rule_path_edge" d="M0 -6 L0 6 M218 -6 L218 6" />
</svg>
